PathFileType	4	(X/Y/Z)	Run_300 01
DataRate	CameraRate	NumFrames	NumMarkers	Units	OrigDataRate	OrigDataStartFrame	OrigNumFrames
120	120	6	42	mm	120	242	128
Frame#	Time	LASI			LPSI			RPSI			RTH1			RTH2			RTH3			LTH1			LTH2			LTH3			RTB1			RTB2			RTB3			LTB1			LTB2			RCAL			RTOE			RMT5			LCAL			LMT5			LACR			RACR			CLAV			C7			RUA1			RUA2			RUA3			RLEL			RMEL			LUA1			LUA2			LUA3			LLEL			LMEL			RFAsuperior			RFAradius			RFAulna			LFAsuperior			LFAradius			LFAulna			LTB3			LTOE			RASI		
		X1	Y1	Z1	X2	Y2	Z2	X3	Y3	Z3	X4	Y4	Z4	X5	Y5	Z5	X6	Y6	Z6	X7	Y7	Z7	X8	Y8	Z8	X9	Y9	Z9	X10	Y10	Z10	X11	Y11	Z11	X12	Y12	Z12	X13	Y13	Z13	X14	Y14	Z14	X15	Y15	Z15	X16	Y16	Z16	X17	Y17	Z17	X18	Y18	Z18	X19	Y19	Z19	X20	Y20	Z20	X21	Y21	Z21	X22	Y22	Z22	X23	Y23	Z23	X24	Y24	Z24	X25	Y25	Z25	X26	Y26	Z26	X27	Y27	Z27	X28	Y28	Z28	X29	Y29	Z29	X30	Y30	Z30	X31	Y31	Z31	X32	Y32	Z32	X33	Y33	Z33	X34	Y34	Z34	X35	Y35	Z35	X36	Y36	Z36	X37	Y37	Z37	X38	Y38	Z38	X39	Y39	Z39	X40	Y40	Z40	X41	Y41	Z41	X42	Y42	Z42	

242	  2.016667	753.467359	985.036797	-496.569976	585.558817	1013.695919	-393.766585	588.932736	1014.773981	-308.605235	770.908850	818.822362	-193.506573	880.362829	735.834839	-216.100279	861.034364	603.950190	-197.829814	698.522860	843.507098	-529.760075	747.581703	727.277808	-513.079505	671.792020	591.963358	-498.858633	805.579607	442.089560	-259.543382	731.073512	460.207850	-206.850045	631.428465	408.747809	-273.746129	668.644699	351.299145	-413.940491	585.529918	268.369759	-457.384269	476.898973	478.292899	-279.246930	509.348009	260.922657	-283.257002	479.254799	289.417371	-193.993916	401.279129	116.351363	-380.058770	585.414213	 59.307761	-457.522977	765.714447	1414.883749	-568.643634	739.091470	1447.321055	-192.540833	848.986868	1392.697234	-342.851045	725.347495	1488.065114	-389.247909	681.465963	1357.691693	-127.381726	678.532160	1287.265090	-120.673434	575.884862	1304.409421	-102.781554	578.640216	1218.354269	-52.536500	531.940006	1204.608189	-126.324528	738.824951	1345.316384	-626.231778	682.633492	1271.773747	-616.043836	729.686570	1264.446649	-675.914411	722.365303	1168.688087	-735.189375	693.020604	1107.082799	-677.664347	650.365727	1172.790137	-69.735506	780.315305	1103.520737	-151.238419	733.408270	1053.298362	-141.008499	792.610208	1182.052023	-714.282274	922.080863	1188.071037	-594.135580	941.577987	1139.675082	-637.334073	564.241535	193.993793	-380.585905	614.921664	 71.679176	-371.563171	755.962295	990.364179	-237.061855	
243	  2.025000	753.149118	987.495409	-497.789096	586.621406	1018.815493	-394.354584	590.146671	1020.971188	-309.082218	775.104635	827.915235	-193.857619	885.755111	747.206413	-217.859280	870.301873	614.783679	-198.958816	695.152838	846.492594	-529.116574	739.525856	728.936899	-511.210800	656.157613	596.961000	-496.666015	822.256629	447.382308	-260.919830	746.470649	460.406425	-208.027096	650.697194	400.955007	-273.673070	646.178129	355.493142	-412.624613	562.629538	273.698156	-457.069031	490.799421	459.578698	-280.759982	540.967199	245.487928	-283.723345	508.442153	272.081048	-194.423408	378.654929	122.434092	-381.766695	560.084006	 59.428169	-457.184818	769.715593	1420.896311	-567.101413	735.641244	1453.609401	-192.663924	848.763058	1399.211448	-340.042746	725.847865	1493.535591	-388.474652	676.098118	1365.693517	-127.828311	672.727348	1295.349998	-120.313212	569.514244	1313.328648	-105.151122	570.444095	1228.089647	-54.594460	525.152339	1213.832583	-129.665332	744.602617	1350.573461	-624.807625	687.557672	1277.789651	-615.605598	736.865433	1269.033883	-673.610308	729.909451	1172.693174	-731.664784	698.104567	1111.808348	-673.774431	642.870216	1183.584334	-69.597234	774.832414	1113.914382	-146.167675	727.978077	1063.423225	-137.787061	799.501752	1186.531929	-709.222811	925.803474	1194.755796	-585.926199	946.162746	1145.394291	-627.408374	541.386137	198.298065	-380.781515	590.947487	 72.131834	-371.627871	756.411974	996.568962	-237.535792	
244	  2.033333	753.425881	990.414509	-499.029199	587.949221	1024.349788	-395.211285	591.398732	1027.392079	-309.583558	779.029037	837.107076	-194.302935	890.475157	758.726770	-219.601234	878.350481	625.204767	-200.031877	692.524595	849.856516	-528.490836	731.992067	731.182616	-509.492891	641.326601	603.009349	-494.574317	838.132966	452.559429	-262.233018	761.368205	459.990472	-209.299117	670.025621	392.682886	-274.082942	624.392247	361.113756	-411.468879	540.435681	280.564085	-457.277494	505.871789	439.337232	-283.071217	573.560312	230.072401	-284.018699	538.838749	254.818789	-194.964298	357.281509	130.196877	-383.946735	534.731342	 59.561274	-456.780570	773.594105	1427.490566	-565.390207	732.449321	1460.100899	-192.769967	848.452546	1406.167283	-337.281840	726.281100	1499.311180	-387.564639	671.308081	1374.002485	-128.233193	667.506827	1303.717379	-119.931787	563.869738	1322.507825	-107.266386	563.069721	1238.116856	-56.434248	518.636299	1223.267282	-132.483934	750.064324	1356.700786	-623.319509	692.189553	1284.767120	-615.499081	743.730007	1274.578169	-671.551822	736.640892	1177.820414	-728.574636	701.879878	1117.703747	-670.526732	636.101301	1194.626414	-69.282054	769.616999	1124.539179	-141.479355	723.018742	1073.725328	-134.373923	805.512511	1191.871737	-704.389710	928.276697	1201.681491	-577.680187	949.334846	1151.462871	-617.442308	519.439935	203.796449	-381.398812	567.471144	 72.528510	-371.971339	756.913074	1002.977184	-238.088838	
245	  2.041667	754.275144	993.825789	-500.292617	589.557407	1030.162496	-396.356820	592.663559	1033.986071	-310.190511	782.684219	846.218533	-194.794624	894.554468	770.068094	-221.230259	885.105350	635.099355	-201.002181	690.313400	853.489109	-527.917644	724.993176	734.008118	-507.971029	627.644590	609.844693	-492.813258	853.086941	457.431847	-263.403421	775.763208	458.878779	-210.646863	689.639750	384.178985	-275.209601	603.650957	368.186977	-410.756497	519.291043	288.945723	-458.172880	522.262112	417.740580	-285.979993	607.199998	214.947239	-284.064183	570.313226	237.772962	-195.512178	337.239552	139.500948	-386.355968	509.604359	 59.755140	-456.416136	777.266048	1434.423619	-563.564002	729.597804	1466.630956	-192.702729	848.020742	1413.402293	-334.610857	726.748377	1505.268582	-386.590501	667.163821	1382.318395	-128.538403	662.859961	1312.110683	-119.494702	558.914429	1331.694108	-109.131649	556.363859	1248.119925	-58.003346	512.569475	1232.704036	-134.876162	755.054693	1363.479294	-621.775674	696.401996	1292.435231	-615.702323	750.052316	1280.840242	-669.721443	742.514241	1183.807404	-725.944897	704.588474	1124.512591	-668.020646	629.841700	1205.441203	-68.653650	764.698219	1135.061861	-137.120817	718.518608	1083.902165	-130.757570	810.587424	1197.838211	-699.839659	929.581951	1208.618269	-569.680836	951.194754	1157.644123	-607.706517	498.653128	210.547021	-382.643087	544.383105	 72.805566	-372.588188	757.409469	1009.508503	-238.829109	
246	  2.050000	755.587931	997.661594	-501.283148	591.454975	1036.103815	-397.718229	594.138325	1040.647741	-311.010813	786.102546	855.157824	-195.326937	898.013582	780.786215	-222.679453	890.420779	644.328477	-201.959928	688.309970	857.320967	-527.418342	718.488264	737.308759	-506.546056	615.052946	617.320308	-491.437886	867.037029	461.855928	-264.454602	789.652306	457.007354	-212.039399	709.680444	375.514665	-276.895358	584.314941	376.569682	-410.716918	499.499823	298.595533	-459.679236	540.063993	394.994726	-289.235184	641.903297	200.352412	-283.906480	602.717917	221.023726	-196.004935	318.669193	150.186874	-388.731492	485.030565	 60.091963	-456.174195	780.713305	1441.472039	-561.655072	727.119547	1473.046988	-192.420052	847.482717	1420.704841	-332.018900	727.304638	1511.263926	-385.617700	663.631748	1390.389797	-128.702910	658.770828	1320.269459	-118.995569	554.607700	1340.678328	-110.744577	550.275456	1257.898264	-59.298724	507.198176	1241.943355	-136.951171	759.577332	1370.665508	-620.214886	700.178845	1300.539195	-616.136493	755.720616	1287.567640	-668.053972	747.578820	1190.369544	-723.707717	706.409101	1131.975520	-666.306613	624.026373	1215.815152	-67.748922	760.158352	1145.255333	-133.000040	714.490053	1093.766431	-126.961849	814.780111	1204.187295	-695.634995	929.823876	1215.441203	-562.137254	951.843098	1163.732203	-598.359558	479.293232	218.496741	-384.532439	521.598646	 72.994577	-373.307176	758.095820	1016.079564	-239.816254	
247	  2.058333	757.265745	1001.769417	-501.630373	593.591785	1042.093699	-399.162042	596.024282	1047.250210	-312.126956	789.282448	863.850659	-195.929892	900.844427	790.448465	-223.879364	894.088532	652.657269	-203.138376	686.489077	861.366030	-526.998840	712.406182	740.963190	-505.117385	603.369166	625.424327	-490.417557	879.927966	465.706129	-265.460481	803.045583	454.354441	-213.416990	730.107328	366.656343	-278.759626	566.764473	385.896681	-411.438853	481.314184	309.084631	-461.540764	559.313590	371.349915	-292.569327	677.595811	186.521433	-283.710527	635.955424	204.656137	-196.451586	301.803917	162.140130	-390.848924	461.248401	 60.683629	-456.113080	783.994279	1448.436757	-559.684382	724.994882	1479.210187	-192.020513	846.905296	1427.809618	-329.466106	727.960721	1517.149767	-384.692643	660.601968	1398.058789	-128.725002	655.203854	1327.998120	-118.458933	550.904522	1349.298502	-112.108188	544.814963	1267.312447	-60.337642	502.686823	1250.800880	-138.774860	763.764457	1378.012207	-618.692818	703.571186	1308.876912	-616.724650	760.727176	1294.509075	-666.485041	751.925808	1197.226671	-721.797889	707.461593	1139.844038	-665.366486	618.695712	1225.674043	-66.687053	756.082110	1154.965623	-129.019754	710.936301	1103.191767	-123.026300	818.213242	1210.685700	-691.870541	929.117724	1222.065277	-555.150295	951.384867	1169.576207	-589.516544	461.637905	227.399406	-386.882177	499.172974	 73.178150	-373.946295	759.188454	1022.596150	-241.082768	
